<svg width="186" height="66" viewBox="0 0 186 66" fill="none" xmlns="http://www.w3.org/2000/svg">
<path d="M17.98 1.3V23H15.81V3.346H4.65V23H2.48V1.3H17.98ZM40.8938 20.117C38.7238 22.287 36.0682 23.372 32.9268 23.372C29.7855 23.372 27.1298 22.287 24.9598 20.117C22.7898 17.9263 21.7048 15.2707 21.7048 12.15C21.7048 9.02933 22.7898 6.384 24.9598 4.214C27.1298 2.02333 29.7855 0.928 32.9268 0.928C36.0682 0.928 38.7238 2.02333 40.8938 4.214C43.0638 6.384 44.1488 9.02933 44.1488 12.15C44.1488 15.2707 43.0638 17.9263 40.8938 20.117ZM26.4788 18.629C28.2148 20.3857 30.3642 21.264 32.9268 21.264C35.4895 21.264 37.6388 20.3857 39.3748 18.629C41.1108 16.8517 41.9788 14.692 41.9788 12.15C41.9788 9.608 41.1108 7.45867 39.3748 5.702C37.6388 3.92467 35.4895 3.036 32.9268 3.036C30.3642 3.036 28.2148 3.92467 26.4788 5.702C24.7428 7.45867 23.8748 9.608 23.8748 12.15C23.8748 14.692 24.7428 16.8517 26.4788 18.629ZM67.6999 1.3V23H65.5299V4.586L57.9349 17.296H57.6249L50.0299 4.586V23H47.8599V1.3H50.5569L57.7799 13.39L65.0029 1.3H67.6999ZM90.6028 20.117C88.4328 22.287 85.7772 23.372 82.6358 23.372C79.4945 23.372 76.8388 22.287 74.6688 20.117C72.4988 17.9263 71.4138 15.2707 71.4138 12.15C71.4138 9.02933 72.4988 6.384 74.6688 4.214C76.8388 2.02333 79.4945 0.928 82.6358 0.928C85.7772 0.928 88.4328 2.02333 90.6028 4.214C92.7728 6.384 93.8578 9.02933 93.8578 12.15C93.8578 15.2707 92.7728 17.9263 90.6028 20.117ZM76.1878 18.629C77.9238 20.3857 80.0732 21.264 82.6358 21.264C85.1985 21.264 87.3478 20.3857 89.0838 18.629C90.8198 16.8517 91.6878 14.692 91.6878 12.15C91.6878 9.608 90.8198 7.45867 89.0838 5.702C87.3478 3.92467 85.1985 3.036 82.6358 3.036C80.0732 3.036 77.9238 3.92467 76.1878 5.702C74.4518 7.45867 73.5838 9.608 73.5838 12.15C73.5838 14.692 74.4518 16.8517 76.1878 18.629ZM122.059 20.954H124.384V27.154H122.214V23H97.5689V1.3H99.7389V20.954H108.729V1.3H110.899V20.954H119.889V1.3H122.059V20.954ZM141.913 1.3H144.083V23H141.913V12.863H130.133V23H127.963V1.3H130.133V10.817H141.913V1.3ZM162.984 23V5.33L150.894 23H149.034V1.3H151.204V18.97L163.294 1.3H165.154V23H162.984ZM185.294 23H182.442L172.274 12.491V23H170.104V1.3H172.274V11.22L182.132 1.3H184.984L174.568 11.84L185.294 23Z" fill="#B0BFC6"/>
<path d="M22.27 61.94C19.8673 64.32 16.9207 65.51 13.43 65.51C9.93933 65.51 6.98133 64.32 4.556 61.94C2.15333 59.5373 0.952 56.5907 0.952 53.1C0.952 49.6093 2.15333 46.674 4.556 44.294C6.98133 41.8913 9.93933 40.69 13.43 40.69C16.9207 40.69 19.8673 41.8913 22.27 44.294C24.6953 46.674 25.908 49.6093 25.908 53.1C25.908 56.5907 24.6953 59.5373 22.27 61.94ZM8.84 57.758C10.064 58.9593 11.594 59.56 13.43 59.56C15.266 59.56 16.796 58.9593 18.02 57.758C19.244 56.534 19.856 54.9813 19.856 53.1C19.856 51.2187 19.244 49.6773 18.02 48.476C16.796 47.252 15.266 46.64 13.43 46.64C11.594 46.64 10.064 47.252 8.84 48.476C7.616 49.6773 7.004 51.2187 7.004 53.1C7.004 54.9813 7.616 56.534 8.84 57.758ZM37.9793 41.2C40.382 41.2 42.3993 41.982 44.0313 43.546C45.6633 45.11 46.4793 47.1047 46.4793 49.53C46.4793 51.9553 45.6633 53.95 44.0313 55.514C42.3993 57.078 40.382 57.86 37.9793 57.86H34.8173V65H28.7313V41.2H37.9793ZM37.9793 52.08C38.6593 52.08 39.226 51.842 39.6793 51.366C40.1553 50.89 40.3933 50.278 40.3933 49.53C40.3933 48.782 40.1553 48.1813 39.6793 47.728C39.226 47.252 38.6593 47.014 37.9793 47.014H34.8173V52.08H37.9793ZM54.9384 59.288H64.1524V65H48.8524V41.2H63.9824V46.878H54.9384V50.176H63.1324V55.786H54.9384V59.288ZM79.8317 41.2H85.8837V65H79.8317V55.854H73.1337V65H67.0477V41.2H73.1337V50.006H79.8317V41.2ZM99.4851 49.972C101.91 49.972 103.848 50.652 105.299 52.012C106.75 53.372 107.475 55.1853 107.475 57.452C107.475 59.7187 106.75 61.5433 105.299 62.926C103.848 64.3087 101.91 65 99.4851 65H89.6591V41.2H105.435V47.082H95.7451V49.972H99.4851ZM99.2471 59.424C99.9044 59.424 100.426 59.2653 100.811 58.948C101.219 58.608 101.423 58.1093 101.423 57.452C101.423 56.7947 101.219 56.296 100.811 55.956C100.426 55.616 99.9044 55.446 99.2471 55.446H95.7451V59.424H99.2471ZM121.841 41.2H128.063L121.195 57.69C120.107 60.274 118.679 62.1667 116.911 63.368C115.166 64.5693 113.001 65.1133 110.417 65V59.322C112.57 59.5033 114.157 58.9253 115.177 57.588L107.391 41.2H113.647L118.033 50.924L121.841 41.2ZM139.382 41.2C141.784 41.2 143.802 41.982 145.434 43.546C147.066 45.11 147.882 47.1047 147.882 49.53C147.882 51.9553 147.066 53.95 145.434 55.514C143.802 57.078 141.784 57.86 139.382 57.86H136.22V65H130.134V41.2H139.382ZM139.382 52.08C140.062 52.08 140.628 51.842 141.082 51.366C141.558 50.89 141.796 50.278 141.796 49.53C141.796 48.782 141.558 48.1813 141.082 47.728C140.628 47.252 140.062 47.014 139.382 47.014H136.22V52.08H139.382ZM164.331 41.2V47.082H156.341V65H150.255V41.2H164.331ZM178.187 65L177.167 61.566H169.245L168.225 65H161.629L169.483 41.2H176.895L184.749 65H178.187ZM170.809 56.33H175.603L173.189 48.238L170.809 56.33Z" fill="#783294"/>
</svg>